<?xml version="1.0" standalone="no"?>
<!DOCTYPE svg PUBLIC "-//W3C//DTD SVG 20010904//EN"
 "http://www.w3.org/TR/2001/REC-SVG-20010904/DTD/svg10.dtd">
<svg version="1.0" xmlns="http://www.w3.org/2000/svg"
 width="279.000000pt" height="254.000000pt" viewBox="0 0 279.000000 254.000000"
 preserveAspectRatio="xMidYMid meet">

<g transform="translate(0.000000,254.000000) scale(0.100000,-0.100000)"
fill="#000000" stroke="none">
<path d="M1408 1217 c7 -8 7 -18 2 -27 -14 -21 -12 -40 3 -40 6 0 34 -23 60
-50 65 -66 96 -66 82 0 -6 26 -11 30 -41 30 -34 0 -38 6 -34 43 2 26 -29 57
-58 57 -19 0 -22 -3 -14 -13z"/>
<path d="M1070 1165 c-8 -10 -9 -15 -1 -15 6 0 17 -16 25 -35 17 -40 52 -51
40 -12 -6 21 -42 77 -48 77 -2 0 -9 -7 -16 -15z"/>
<path d="M1014 1144 c3 -9 6 -18 6 -20 0 -2 7 -4 15 -4 18 0 19 12 3 28 -17
17 -31 15 -24 -4z"/>
<path d="M1160 1020 c0 -6 7 -10 15 -10 8 0 15 2 15 4 0 2 -7 6 -15 10 -8 3
-15 1 -15 -4z"/>
<path d="M1180 983 c0 -4 8 -17 16 -28 15 -20 16 -20 12 4 -3 22 -28 44 -28
24z"/>
<path d="M1237 871 c-3 -14 2 -21 16 -25 29 -7 44 9 27 29 -17 21 -37 19 -43
-4z"/>
<path d="M1300 838 c0 -18 49 -62 59 -53 3 3 -9 20 -27 38 -24 23 -32 27 -32
15z"/>
<path d="M970 700 c0 -5 5 -10 11 -10 5 0 7 5 4 10 -3 6 -8 10 -11 10 -2 0 -4
-4 -4 -10z"/>
<path d="M1400 593 c0 -5 7 -18 15 -29 12 -16 14 -16 15 -3 0 9 -7 22 -15 29
-8 7 -15 8 -15 3z"/>
</g>
</svg>
